<svg xmlns="http://www.w3.org/2000/svg" width="600" height="340" viewBox="0 0 600 340">
  <defs>
    <linearGradient id="bg" x1="0%" y1="0%" x2="100%" y2="100%">
      <stop offset="0%" style="stop-color:#0ea5e9;stop-opacity:1" />
      <stop offset="100%" style="stop-color:#6366f1;stop-opacity:1" />
    </linearGradient>
  </defs>
  <rect width="600" height="340" fill="url(#bg)"/>
  <!-- Grid lines -->
  <line x1="0" y1="85" x2="600" y2="85" stroke="rgba(255,255,255,0.08)" stroke-width="1"/>
  <line x1="0" y1="170" x2="600" y2="170" stroke="rgba(255,255,255,0.08)" stroke-width="1"/>
  <line x1="0" y1="255" x2="600" y2="255" stroke="rgba(255,255,255,0.08)" stroke-width="1"/>
  <line x1="150" y1="0" x2="150" y2="340" stroke="rgba(255,255,255,0.08)" stroke-width="1"/>
  <line x1="300" y1="0" x2="300" y2="340" stroke="rgba(255,255,255,0.08)" stroke-width="1"/>
  <line x1="450" y1="0" x2="450" y2="340" stroke="rgba(255,255,255,0.08)" stroke-width="1"/>
  <!-- Browser frame -->
  <rect x="80" y="60" width="440" height="220" rx="12" fill="rgba(255,255,255,0.12)" stroke="rgba(255,255,255,0.3)" stroke-width="1.5"/>
  <rect x="80" y="60" width="440" height="32" rx="12" fill="rgba(255,255,255,0.18)"/>
  <circle cx="104" cy="76" r="5" fill="rgba(255,100,100,0.8)"/>
  <circle cx="122" cy="76" r="5" fill="rgba(255,200,50,0.8)"/>
  <circle cx="140" cy="76" r="5" fill="rgba(80,200,80,0.8)"/>
  <!-- Cart icon -->
  <path d="M260 140 L280 140 L295 175 L240 175 Z" fill="rgba(255,255,255,0.9)" stroke="none"/>
  <circle cx="255" cy="185" r="6" fill="rgba(255,255,255,0.9)"/>
  <circle cx="285" cy="185" r="6" fill="rgba(255,255,255,0.9)"/>
  <line x1="250" y1="140" x2="245" y2="128" stroke="rgba(255,255,255,0.9)" stroke-width="2.5"/>
  <line x1="245" y1="128" x2="232" y2="128" stroke="rgba(255,255,255,0.9)" stroke-width="2.5"/>
  <!-- Price tags -->
  <rect x="320" y="145" width="70" height="20" rx="4" fill="rgba(255,255,255,0.2)"/>
  <rect x="320" y="172" width="50" height="14" rx="3" fill="rgba(255,255,255,0.15)"/>
  <!-- Title -->
  <text x="300" y="240" font-family="system-ui, sans-serif" font-size="18" font-weight="700" fill="white" text-anchor="middle" opacity="0.95">E-Commerce Platform</text>
  <text x="300" y="262" font-family="system-ui, sans-serif" font-size="12" fill="rgba(255,255,255,0.7)" text-anchor="middle">React · Node.js · MongoDB · Stripe</text>
</svg>
